<?xml version="1.0" encoding="utf-8"?>
<!-- Generator: Adobe Illustrator 26.0.1, SVG Export Plug-In . SVG Version: 6.00 Build 0)  -->
<svg version="1.1" id="Layer_1" xmlns="http://www.w3.org/2000/svg" xmlns:xlink="http://www.w3.org/1999/xlink" x="0px" y="0px"
	 viewBox="0 0 553.6 479.7" style="enable-background:new 0 0 553.6 479.7;" xml:space="preserve">
<style type="text/css">
	.st0{fill:#F19020;}
	.st1{fill:#353535;}
</style>
<g>
	<g>
		<g>
			<path class="st0" d="M145.9,408.2c-1.6,0-3,0.3-4.1,0.9c-1.2,0.6-2.2,1.3-2.9,2.2c-0.8,0.9-1.4,1.9-1.7,3s-0.6,2.2-0.6,3.3
				c0,1,0.2,1.8,0.5,2.5c0.3,0.7,0.7,1.4,1.3,2c0.5,0.6,1.1,1.1,1.9,1.5c0.7,0.5,1.5,0.9,2.3,1.3c0.7,0.4,1.3,0.7,1.6,1
				c0.3,0.3,0.5,0.6,0.5,1c0,0.4-0.1,0.8-0.4,1.3c-0.3,0.5-0.7,0.9-1.4,1.3s-1.6,0.8-2.9,1c-1.2,0.3-2.8,0.4-4.8,0.4
				c-1.6,0-2.9-0.1-4-0.4c-1.1-0.3-1.9-0.6-2.5-1.1s-1.1-1.1-1.4-1.7s-0.4-1.4-0.4-2.2V419h-5.5v6.8c0,1.5,0.2,2.9,0.7,4.1
				c0.5,1.3,1.2,2.3,2.3,3.3c1.1,0.9,2.5,1.7,4.2,2.2c1.7,0.5,3.9,0.8,6.5,0.8c2.9,0,5.3-0.3,7.2-1c1.9-0.6,3.5-1.5,4.6-2.5
				s2-2.1,2.5-3.4c0.5-1.2,0.7-2.4,0.7-3.6c0-0.6-0.1-1.1-0.2-1.7c-0.2-0.5-0.4-1-0.8-1.5c-0.4-0.5-0.9-0.9-1.5-1.4
				s-1.5-0.9-2.5-1.4c-0.8-0.4-1.5-0.8-2.1-1.3c-0.6-0.4-0.9-1-0.9-1.6c0-0.4,0.1-0.8,0.3-1.2s0.4-0.8,0.8-1.1
				c0.3-0.3,0.8-0.6,1.3-0.8c0.5-0.2,1.2-0.3,1.9-0.3c0.4,0,1,0,1.7,0.1s1.6,0.2,2.5,0.4v-4.9c-0.4-0.1-1-0.3-1.8-0.5
				S147,408.2,145.9,408.2z"/>
			<path class="st0" d="M181,408.4c0.8,0,1.5-0.3,2.1-0.9c0.6-0.6,0.9-1.3,0.9-2.1c0-0.8-0.3-1.5-0.9-2.1c-0.6-0.6-1.3-0.9-2.1-0.9
				c-0.8,0-1.5,0.3-2.1,0.9c-0.6,0.6-0.9,1.3-0.9,2.1c0,0.8,0.3,1.5,0.9,2.1C179.4,408.1,180.2,408.4,181,408.4z"/>
			<path class="st0" d="M184.5,402.3c0.8,0,1.5-0.3,2.1-0.9c0.6-0.6,0.9-1.3,0.9-2.1c0-0.8-0.3-1.5-0.9-2.1
				c-0.6-0.6-1.3-0.9-2.1-0.9c-0.8,0-1.5,0.3-2.1,0.9c-0.6,0.6-0.9,1.3-0.9,2.1c0,0.8,0.3,1.5,0.9,2.1
				C183,402,183.7,402.3,184.5,402.3z"/>
			<path class="st0" d="M184.9,405.4c0,0.8,0.3,1.5,0.9,2.1c0.6,0.6,1.3,0.9,2.1,0.9c0.8,0,1.5-0.3,2.1-0.9c0.6-0.6,0.9-1.3,0.9-2.1
				c0-0.8-0.3-1.5-0.9-2.1c-0.6-0.6-1.3-0.9-2.1-0.9c-0.8,0-1.5,0.3-2.1,0.9C185.2,403.9,184.9,404.6,184.9,405.4z"/>
			<path class="st0" d="M206.2,412.7v11.9h-4.8c-1.4,0-2.3-0.2-2.7-0.7c-0.4-0.4-0.6-1.2-0.6-2.2v-9h-5.4v9.8c0,0.9-0.2,1.5-0.7,1.8
				c-0.5,0.3-1.1,0.4-1.9,0.4c-1,0-1.7-0.2-2.2-0.7c-0.4-0.5-0.7-1.2-0.7-2.2v-7.2h-5.4v8.1c0,0.9-0.3,1.4-0.9,1.6
				c-0.6,0.2-1.3,0.4-2.1,0.4c-1,0-1.8-0.3-2.2-0.8c-0.5-0.5-0.7-1.2-0.7-2.1v-7.2h-5.4v8.1c0,0.5-0.1,0.9-0.2,1.1
				c-0.1,0.3-0.3,0.5-0.6,0.6c-0.3,0.1-0.6,0.2-1,0.2c-0.4,0-0.9,0-1.5,0h-1.7c-0.4,0-0.7,0-1.1-0.1c-0.4-0.1-0.7-0.3-1-0.5
				c-0.3-0.2-0.5-0.5-0.7-0.9c-0.2-0.4-0.3-0.8-0.3-1.4v-7.2h-5.4v12.6c0,1-0.1,1.9-0.2,2.7c-0.1,0.7-0.3,1.4-0.7,1.8
				c-0.3,0.5-0.8,0.8-1.5,1.1c-0.7,0.2-1.6,0.4-2.7,0.4v5.2c1.8,0,3.3-0.2,4.6-0.6s2.4-0.9,3.2-1.7c0.8-0.8,1.5-1.8,1.9-3.1
				c0.4-1.3,0.7-2.9,0.7-4.8c0.5,0.6,1.1,0.9,1.7,1.1c0.6,0.2,1.1,0.3,1.5,0.3h1.6c1.9,0,3.4-0.1,4.6-0.4c1.2-0.2,2.2-0.9,3-1.8
				c1.2,1.5,3.2,2.2,6,2.2c1,0,2-0.1,2.9-0.4c0.9-0.3,1.8-0.9,2.6-1.8c0.7,0.8,1.6,1.4,2.6,1.7c1,0.3,1.9,0.5,2.7,0.5
				c1,0,2-0.1,3-0.4c1-0.3,1.8-0.9,2.7-1.9c0.5,0.9,1.2,1.5,1.9,1.8c0.8,0.3,1.6,0.4,2.4,0.4h10.4v-16.8H206.2z"/>
			<path class="st0" d="M208.7,433.5c-0.8,0-1.5,0.3-2.1,0.9c-0.6,0.6-0.9,1.3-0.9,2.1s0.3,1.5,0.9,2.1c0.6,0.6,1.3,0.9,2.1,0.9
				c0.8,0,1.5-0.3,2.1-0.9c0.6-0.6,0.9-1.3,0.9-2.1s-0.3-1.5-0.9-2.1C210.2,433.8,209.5,433.5,208.7,433.5z"/>
		</g>
		<g>
			<path class="st0" d="M250.8,424.6H246h0h-6.8c1.3-1,2.2-2.1,2.9-3.3c0.7-1.2,1-2.3,1-3.3c0-0.7-0.2-1.4-0.5-2.1
				c-0.3-0.7-0.8-1.3-1.4-1.9c-0.6-0.5-1.4-1-2.4-1.3c-1-0.3-2.1-0.5-3.4-0.5c-1.5,0-2.9,0.3-4.2,0.8s-2.4,1.3-3.3,2.2
				c-0.2,0.2-0.3,0.4-0.5,0.8c-0.2,0.3-0.4,0.7-0.5,1c-0.2,0.4-0.3,0.8-0.5,1.2c-0.2,0.4-0.3,0.8-0.4,1.2l4.5,5.4
				c-2.5,1-4.5,2.4-5.8,4.1s-2.1,3.7-2.1,6.2c0,1.5,0.3,2.9,0.9,4.1c0.6,1.2,1.4,2.2,2.5,3c1.1,0.8,2.3,1.4,3.7,1.8
				c1.4,0.4,3,0.6,4.6,0.6c0.5,0,1.2,0,1.9-0.1c0.7-0.1,1.5-0.2,2.3-0.5c0.8-0.2,1.7-0.5,2.7-1c1-0.4,1.9-0.9,2.9-1.6l-2.1-3.9
				c-1.7,0.7-3.2,1.2-4.3,1.5s-2.2,0.4-3.1,0.4c-1.8,0-3.3-0.4-4.4-1.2c-1.2-0.8-1.8-2-1.8-3.6c0-1.4,0.5-2.6,1.6-3.7
				c1.1-1.1,2.4-2.1,4.1-2.9c0.8,0.6,1.6,1,2.5,1.3c0.9,0.3,1.8,0.4,2.5,0.4h6.8h0h10.4v-16.8h-5.6V424.6z M237,420.9
				c-0.5,0.8-1.1,1.4-1.8,1.9c-0.3-0.3-0.6-0.6-1-1c-0.4-0.4-0.7-0.8-1.1-1.2c-0.4-0.4-0.7-0.8-1.1-1.3c-0.3-0.4-0.6-0.8-0.9-1.2
				c0.4-0.3,0.9-0.5,1.6-0.8c0.7-0.2,1.5-0.4,2.4-0.4c0.5,0,1,0.1,1.3,0.2c0.3,0.1,0.6,0.3,0.8,0.5s0.3,0.4,0.4,0.6s0.1,0.5,0.1,0.7
				C237.7,419.4,237.5,420.1,237,420.9z"/>
			<path class="st0" d="M253.4,433.5c-0.8,0-1.5,0.3-2.1,0.9c-0.6,0.6-0.9,1.3-0.9,2.1s0.3,1.5,0.9,2.1c0.6,0.6,1.3,0.9,2.1,0.9
				c0.8,0,1.5-0.3,2.1-0.9c0.6-0.6,0.9-1.3,0.9-2.1s-0.3-1.5-0.9-2.1C254.9,433.8,254.2,433.5,253.4,433.5z"/>
			<path class="st0" d="M278.2,408.4c0.8,0,1.5-0.3,2.1-0.9c0.6-0.6,0.9-1.3,0.9-2.1c0-0.8-0.3-1.5-0.9-2.1
				c-0.6-0.6-1.3-0.9-2.1-0.9c-0.8,0-1.5,0.3-2.1,0.9c-0.6,0.6-0.9,1.3-0.9,2.1c0,0.8,0.3,1.5,0.9,2.1
				C276.7,408.1,277.4,408.4,278.2,408.4z"/>
			<path class="st0" d="M305.2,418.3c-0.4-1.1-0.9-2-1.5-2.7c-0.7-0.8-1.5-1.3-2.4-1.8s-2-0.6-3.2-0.6c-0.8,0-1.6,0.1-2.4,0.3
				s-1.6,0.6-2.4,1.2c-0.8,0.6-1.5,1.4-2.2,2.5c-0.7,1.1-1.4,2.5-2,4.2c-0.4,1.1-0.8,1.9-1.2,2.4c-0.4,0.6-1,0.8-1.7,0.8h-1.9
				c-1.4,0-2.2-0.2-2.6-0.7c-0.4-0.4-0.6-1.2-0.6-2.2v-9h-5.5v9.5c0,1-0.2,1.7-0.6,2s-1,0.4-2,0.4h-2.6c0,0,0,0,0,0c0,0,0,0,0,0
				h-0.8c-0.7,0-1.2-0.1-1.5-0.4c-0.3-0.3-0.5-0.9-0.5-1.9v-23h-5.5v23.8c0,1.2,0.2,2.2,0.5,3c0.3,0.8,0.8,1.5,1.4,2
				c0.6,0.5,1.3,0.8,2.1,1.1c0.8,0.2,1.7,0.3,2.6,0.3h1.8c0,0,0,0,0,0c0,0,0,0,0,0h3.5c0.6,0,1.1,0,1.7-0.1c0.6,0,1.1-0.1,1.7-0.3
				c0.5-0.1,1-0.4,1.5-0.7c0.5-0.3,0.9-0.7,1.2-1.2c0.5,0.9,1.2,1.5,1.9,1.7s1.5,0.4,2.4,0.4h2.2c0.9,0,1.7-0.1,2.5-0.3
				c0.8-0.2,1.5-0.7,2.2-1.5c1.3,0.8,2.5,1.4,3.6,1.7c1.1,0.3,2.3,0.5,3.4,0.5c1.3,0,2.4-0.2,3.3-0.6c0.9-0.4,1.7-1,2.3-1.7
				c0.6-0.7,1.1-1.6,1.4-2.6s0.5-2.1,0.5-3.3C305.7,420.5,305.5,419.3,305.2,418.3z M299.6,424c-0.5,0.6-1.2,0.9-2.1,0.9
				c-0.7,0-1.4-0.1-2.2-0.4c-0.7-0.3-1.4-0.7-2.1-1.1c0.5-1.8,1.2-3.1,1.9-4c0.8-0.9,1.6-1.3,2.5-1.3c0.5,0,0.9,0.1,1.3,0.3
				c0.4,0.2,0.6,0.5,0.8,0.8s0.4,0.7,0.5,1.1s0.1,0.8,0.1,1.3C300.4,422.6,300.1,423.4,299.6,424z"/>
		</g>
		<g>
			<path class="st0" d="M337.4,410.9c0.8,0,1.5-0.3,2.1-0.9c0.6-0.6,0.9-1.3,0.9-2.1s-0.3-1.5-0.9-2.1c-0.6-0.6-1.3-0.9-2.1-0.9
				c-0.8,0-1.5,0.3-2.1,0.9c-0.6,0.6-0.9,1.3-0.9,2.1s0.3,1.5,0.9,2.1C335.9,410.6,336.6,410.9,337.4,410.9z"/>
			<path class="st0" d="M330.5,410.9c0.8,0,1.5-0.3,2.1-0.9c0.6-0.6,0.9-1.3,0.9-2.1s-0.3-1.5-0.9-2.1c-0.6-0.6-1.3-0.9-2.1-0.9
				c-0.8,0-1.5,0.3-2.1,0.9c-0.6,0.6-0.9,1.3-0.9,2.1s0.3,1.5,0.9,2.1C329,410.6,329.7,410.9,330.5,410.9z"/>
			<path class="st0" d="M381.7,412.7v11.9h-2.6c-1.7,0-2.5-1-2.5-2.9v-7.2h-5.5v8.1c0,0.9-0.3,1.4-0.9,1.6c-0.6,0.2-1.3,0.4-2.1,0.4
				c-1,0-1.8-0.3-2.3-0.8c-0.5-0.5-0.7-1.2-0.7-2.1v-7.2h-5.4v8.1c0,0.5-0.1,0.9-0.2,1.1s-0.3,0.5-0.6,0.6s-0.6,0.2-1,0.2
				c-0.4,0-0.9,0-1.5,0h-1.7c0,0,0,0,0,0c0,0,0,0,0,0c-1.4,0-2.3-0.2-2.7-0.7c-0.4-0.4-0.7-1.2-0.7-2.2v-9h-5.4v9.5
				c0,1-0.2,1.7-0.6,2c-0.4,0.3-1,0.4-2,0.4h-16.1c-1,0-1.7,0-2.4-0.1s-1.1-0.2-1.5-0.4c-0.4-0.2-0.6-0.5-0.8-0.8
				c-0.1-0.3-0.2-0.8-0.2-1.3v-6.2h-5.5v7c0,1.2,0.1,2.2,0.4,3.1c0.3,0.8,0.8,1.5,1.4,2.1c0.7,0.5,1.6,0.9,2.7,1.2s2.5,0.4,4.2,0.4
				h18.5c0.6,0,1.1,0,1.7-0.1c0.6,0,1.1-0.1,1.7-0.3c0.5-0.1,1-0.4,1.5-0.7c0.5-0.3,0.9-0.7,1.2-1.2c0.5,0.9,1.2,1.5,2,1.7
				c0.8,0.3,1.6,0.4,2.4,0.4c0,0,0,0,0,0c0,0,0,0,0,0h1.7c1.9,0,3.4-0.1,4.6-0.4s2.2-0.9,3-1.8c0.4,0.5,1.1,1,2.1,1.5
				c1,0.5,2.2,0.7,3.6,0.7c0.5,0,0.9,0,1.4,0c0.5,0,1-0.1,1.5-0.3c0.5-0.1,1-0.4,1.5-0.7c0.5-0.3,0.9-0.7,1.3-1.2
				c0.5,0.8,1.2,1.3,1.9,1.7c0.8,0.3,1.9,0.5,3.4,0.5h6.5v-16.8H381.7z"/>
		</g>
		<g>
			<path class="st0" d="M404.6,433.6c-0.8,0-1.5,0.3-2.1,0.9c-0.6,0.6-0.9,1.3-0.9,2.1s0.3,1.5,0.9,2.1c0.6,0.6,1.3,0.9,2.1,0.9
				c0.8,0,1.5-0.3,2.1-0.9c0.6-0.6,0.9-1.3,0.9-2.1s-0.3-1.5-0.9-2.1C406.1,433.9,405.4,433.6,404.6,433.6z"/>
			<path class="st0" d="M411.5,433.6c-0.8,0-1.5,0.3-2.1,0.9c-0.6,0.6-0.9,1.3-0.9,2.1s0.3,1.5,0.9,2.1c0.6,0.6,1.3,0.9,2.1,0.9
				c0.8,0,1.5-0.3,2.1-0.9c0.6-0.6,0.9-1.3,0.9-2.1s-0.3-1.5-0.9-2.1S412.3,433.6,411.5,433.6z"/>
			<path class="st0" d="M409.1,412.7v11.9h-7.9c-0.2,0-0.3,0-0.4,0h-0.4c-0.7,0-1.2-0.1-1.5-0.4c-0.3-0.3-0.5-0.9-0.5-1.9v-23h-5.5
				v23.8c0,1.2,0.2,2.2,0.5,3c0.3,0.8,0.8,1.5,1.4,2c0.6,0.5,1.3,0.8,2.1,1.1c0.8,0.2,1.7,0.3,2.6,0.3h1.8c0,0,0,0,0,0c0,0,0,0,0,0
				h13.4v-16.8H409.1z"/>
		</g>
		<path class="st0" d="M424.1,414.6h5.5v12.6c0,2-0.2,3.8-0.5,5.2c-0.3,1.4-0.9,2.6-1.6,3.4c-0.8,0.9-1.8,1.5-3.2,1.9
			c-1.4,0.4-3.1,0.6-5.2,0.6v-5.2c1.2,0,2.1-0.2,2.7-0.4c0.7-0.2,1.2-0.6,1.5-1.1c0.3-0.5,0.5-1.1,0.7-1.8s0.2-1.6,0.2-2.7V414.6z"
			/>
	</g>
	<g>
		<g>
			<g>
				<path class="st0" d="M431.4,84.3c-0.1,1.7,0.1,4.3,0,5.7c-0.1,10.2,0,17.1,0,27.7c-0.1,0.6-0.4,1.2-1,1.4l-76.1,54.1
					c-0.3,0.2-0.6,0.5-0.9,0.7c0,0.1,0,0.1-0.1,0.2c-0.1,0.2-0.3,0.4-0.6,0.5c-6.9,4.9-13.8,9.8-20.8,14.6c-0.2,0.1-0.4,0.4-0.7,0.3
					l0,0c-3.1,2.2-6.3,4.4-9.4,6.6l-66.6,47c-0.2,0.2-0.5,0.3-1,0.7c10.4-24,20.6-47.7,30.9-71.5l-0.2-0.1
					c-30.7,24.3-61.2,47.4-91.9,71.6l0,0c6-18.3,11.7-35.5,17.8-54.1l0.1-0.3l-0.3,0.2c-0.4,0.2-0.7,0.4-0.9,0.6l-86.6,51.9
					c-0.1,0.1-0.2,0.1-0.3,0.2l-2.4,1.6l0,0c-0.1-0.1-0.1-0.2,0-0.3l0,0c11.1-8.5,23.4-18.1,34.5-26.7c4.1-3.1,8.2-6.3,12.3-9.6
					v-0.1l0,0c0.1-0.5,0.6-0.7,0.9-1c5.7-4.2,11.4-8.6,17.1-12.9c5.1-3.9,10.3-7.8,15.2-11.9c0.6-0.6,1.2-1.1,1.9-1.6l0.2-0.1
					l0.2-0.1l0.3-0.1h0.1l26.4-20.4l5.3-4.1v36.4l80.1-58.8c-0.7,15.6-1.5,31-2.2,46.6v0.1h0.1L431.4,84.3z"/>
				<path class="st1" d="M494.2,217c0,13.6-6.1,23.5-18.1,29.8c-5.7,2.9-11.9,4.9-18.2,5.9c-0.3,0-0.7,0-1,0c-16,0-32,0-48,0
					c-8,0.2-15.9-1.7-23-5.3c-3.6-1.9-6.8-4.6-9.2-7.9c-0.2-0.2-0.4-0.5-0.6-0.7c-0.8-0.7-1.4-0.6-1.9,0.3c-0.5,0.9-0.7,1.9-0.8,3
					c-0.2,1.8-0.7,3.6-1.6,5.2c-2.9,5.5-6.7,10.5-11.2,14.8c-10.1,9.9-21,18.9-32.7,26.9c-11.4,8-23.3,15.2-35.7,21.6
					c-0.4,0.2-1,0.4-1.5,0.4h-55.2c-0.3,0.1-0.5,0-0.7-0.2c2.8-1.3,5.5-2.5,8.3-3.8c16.3-7.3,32.3-15.3,47.9-24
					c7.8-4.5,15.3-9.4,22.5-14.9c9.8-7.4,19.2-15.4,28-23.9c4-3.7,6.6-8.6,7.5-14c1.2-6.2-0.2-12-2.8-17.6c-1.5-3.1-3.3-6-5.4-8.8
					c-3-4.4-6-8.7-9-13.1c-0.2-0.3-0.4-0.6-0.6-1l0,0c2.3-1.8,4.8-3.4,7.2-5.1c5-3.5,9.9-7,14.9-10.5l0.1-0.1
					c6.6,10.6,13,21.2,19.7,31.7c6.4,10.4,16.6,17.9,28.5,20.8c3.4,0.8,6.9,1.2,10.3,1.2c13.8,0,27.6,0,41.4-0.1
					c3.5,0,6.9-1,9.8-2.9c3.4-2.2,5.2-6.2,4.6-10.3c-0.5-3.6-1.7-7-3.5-10.1c-4.4-7.7-9-15.2-14-22.5c-0.7-1-1.5-2-2.4-2.9
					c0.1-0.3,0.3-0.3,0.5-0.5c7-4.1,13.9-8.3,20.9-12.4c0.5-0.3,0.9-0.4,1.3,0.2c6.5,8.4,12.7,17,17.5,26.5
					C491.9,200.2,494.1,208.5,494.2,217z"/>
				<path class="st1" d="M202.9,179.5L202.9,179.5v0.1c0,0.1-0.1,0.2-0.1,0.2l-0.2,0.3c-1.5,1.2-2.9,2.5-4.5,3.7
					c-7.7,6.1-15.5,12-23.4,17.9c-2.5,1.9-4.9,3.7-7.4,5.6l0,0l-46.8,0.2c-4,0-7.9,0.1-11.9,0.1c-11.5-0.1-22.2-3-31.5-10
					c-8.3-6.3-13.1-14.7-15.7-24.6c-1.4-5.3-2.1-10.7-2.1-16.1c0.1-32.1,0.2-64.3,0.3-96.4c0-8.1,0-16.2,0.1-24.3c0-0.3,0-0.6,0-0.9
					h30.1c0,0.3,0,0.7,0,1c0,26.3-0.1,52.7-0.2,79c0,12.5-0.1,24.9-0.1,37.4c0,5.8,1.2,11.6,3.7,16.9c2.6,5.5,6.4,9.8,12.4,11.7
					c2,0.6,4.1,1,6.1,1h48c2.6,0,5.1-0.5,7.5-1.4c6-2.4,8.5-7.1,7.1-13.4c-0.6-2.8-1.7-5.6-3.2-8c-4.9-8.3-9.8-16.6-14.8-24.9
					c-0.4-0.7-0.3-1,0.3-1.4c6.9-4.1,13.8-8.2,20.6-12.4c0.5-0.3,0.8-0.4,1.2,0.2c6.7,10.5,13.9,20.8,20,31.7c3,5.2,4.6,11,4.6,17
					c0,2.3,0.1,4.5,0.2,6.8C203.6,177.5,203.4,178.6,202.9,179.5z"/>
				<path class="st0" d="M315.8,122.6c0,0.7-0.3,0.7-0.8,0.7h-15c-4.9,0-9.9,0-14.8,0c-0.7,0-0.9-0.1-0.9-0.9c0-8.2,0-16.5,0-24.7
					c0-0.7,0.2-0.9,0.8-0.9c10,0,19.9,0,29.9,0c0.6,0,0.8,0.2,0.8,0.8C315.8,106,315.8,114.3,315.8,122.6z"/>
				<path class="st0" d="M315.5,261.1c0,0.8-0.3,1-1,1c-9.8,0-19.7,0-29.5,0c-0.8,0-1-0.2-1-1c0-8.1,0-16.3,0-24.4
					c0-0.9,0.3-1,1.1-1c4.9,0,9.8,0,14.7,0c4.9,0,9.8,0,14.8,0c0.8,0,1,0.2,1,1C315.5,244.8,315.5,252.9,315.5,261.1z"/>
				<path class="st1" d="M473.8,303.2c0,0.7-0.2,0.9-0.9,0.9c-9.3,0-18.6,0-27.9,0c-0.7,0-0.9-0.1-0.9-0.9c0-7.7,0-15.4,0-23.1
					c0-0.7,0.2-0.9,0.9-0.9c4.7,0,9.4,0,14,0s9.2,0,13.8,0c0.7,0,0.9,0.2,0.9,0.9C473.8,287.9,473.8,295.5,473.8,303.2z"/>
				<path class="st1" d="M182.7,99.7c0,0.8-0.3,0.9-0.9,0.9c-4.5,0-9.1,0-13.6,0s-8.9,0-13.3,0c-0.8,0-1.1-0.2-1.1-1
					c0-7.4,0-14.8,0-22.2c0-0.8,0.2-1,1-1c9,0,18,0,27,0c0.7,0,0.9,0.1,0.9,0.9C182.7,84.6,182.7,92.2,182.7,99.7z"/>
			</g>
			<g>
				<g>
					<path class="st1" d="M77.9,355.7c0.9,0,1.5-0.2,2.1-0.8c0.5-0.6,0.8-1.3,0.8-2.1s-0.3-1.5-0.8-2.1c-0.6-0.5-1.3-0.8-2.1-0.8
						c-0.8,0-1.4,0.3-2,0.9c-0.5,0.5-0.8,1.3-0.8,2s0.2,1.4,0.8,2C76.4,355.4,77.1,355.7,77.9,355.7z"/>
					<path class="st1" d="M71.4,355.7c0.8,0,1.4-0.3,2-0.9c0.5-0.5,0.8-1.2,0.8-2s-0.2-1.4-0.8-2c-0.5-0.6-1.2-0.9-2-0.9
						c-0.8,0-1.4,0.3-2,0.9c-0.5,0.5-0.8,1.3-0.8,2s0.2,1.4,0.8,2C69.9,355.4,70.6,355.7,71.4,355.7z"/>
					<path class="st1" d="M123.6,356.6h-16.7c-1.2,0-1.8-0.2-2.1-0.4c-0.3-0.3-0.5-1-0.5-2.2v-3.3h23.9V345H98.3v12.9
						c0,1.5,0.4,2.7,1.2,3.3c0.7,0.6,1.8,0.9,3.4,0.9h16.7c0.8,0,1.3,0,1.7,0.2c0.5,0.2,0.8,1,0.8,2.3v4.6H92.9H91h-1.6V358h-5.8
						v11.2H68.8c-1.6,0-2.6,0-2.9-0.2c-0.5-0.3-0.8-1.1-0.8-2.4V358h-5.8v11.2c0,3.8,2,5.7,5.9,5.7H91h1.9h35.2h0.2v-14.1
						C128.3,358,126.8,356.6,123.6,356.6z"/>
				</g>
				<g>
					<path class="st1" d="M167.4,352.8c0,0.7,0.2,1.4,0.8,2c0.5,0.6,1.2,0.9,2,0.9c0.8,0,1.4-0.3,2-0.9c0.5-0.5,0.8-1.2,0.8-2
						s-0.3-1.5-0.8-2c-0.5-0.6-1.2-0.9-2-0.9c-0.8,0-1.4,0.3-2,0.9C167.8,351.3,167.4,352.1,167.4,352.8z"/>
					<path class="st1" d="M166.9,350.5c0.9,0,1.5-0.2,2.1-0.8c0.5-0.6,0.8-1.3,0.8-2.1c0-0.8-0.3-1.5-0.8-2
						c-0.6-0.5-1.3-0.8-2.1-0.8s-1.4,0.2-2,0.8c-0.5,0.5-0.8,1.2-0.8,2c0,0.7,0.2,1.4,0.8,2C165.4,350.2,166.1,350.5,166.9,350.5z"
						/>
					<path class="st1" d="M175.3,357.9v8.7c0,1.7-0.9,2.6-2.6,2.6H170V358h-5.8v11.2H159V358h-5.8v11.2h-5.1h-1.4h-2.1v-11.3h-5.8
						v19.8c0,2.1-0.9,3.1-2.6,3.1h-5v6h8.1c1.6,0,2.9-0.5,3.9-1.6c0.9-1.1,1.4-2.4,1.4-4.1v-6.2h2.1h1.4h27c3.9,0,5.9-1.9,5.9-5.7
						h0.1v-11.3H175.3z"/>
					<path class="st1" d="M163.6,355.7c0.7,0,1.4-0.3,2-0.9c0.6-0.5,0.9-1.2,0.9-2s-0.3-1.5-0.9-2c-0.5-0.6-1.2-0.9-2-0.9
						c-0.8,0-1.4,0.3-2,0.9c-0.5,0.5-0.8,1.3-0.8,2s0.2,1.4,0.8,2C162.1,355.4,162.8,355.7,163.6,355.7z"/>
				</g>
				<g>
					<g>
						<path class="st1" d="M211.4,355.6c0.7,0,1.4-0.3,2-0.9c0.6-0.5,0.9-1.2,0.9-2s-0.3-1.4-0.9-2c-0.5-0.5-1.2-0.8-2-0.8
							c-0.7,0-1.4,0.2-2,0.8c-0.6,0.5-0.9,1.2-0.9,2c0,0.7,0.3,1.4,0.9,2C209.9,355.3,210.6,355.6,211.4,355.6z"/>
						<path class="st1" d="M236.8,355.7c0.8,0,1.4-0.3,2-0.9c0.5-0.5,0.8-1.2,0.8-2s-0.2-1.5-0.8-2c-0.5-0.6-1.2-0.9-2-0.9
							c-0.8,0-1.4,0.3-2,0.9c-0.5,0.5-0.8,1.3-0.8,2s0.2,1.4,0.8,2C235.3,355.4,236,355.7,236.8,355.7z"/>
						<path class="st1" d="M245.3,357.9v8.7c0,1.7-0.9,2.6-2.6,2.6H240V358h-5.8v11.2H229V358h-5.8v11.2h-5h-1.5h-2V358h-5.8v11.2
							h-6.6v0.1h-0.1c-1.9,0-2.9-0.9-2.9-2.6V345h-5.8v24.3c0,3.7,1.9,5.6,5.8,5.6h3h1.5h12.9h1.4h0.1h26.9c3.9,0,5.9-1.9,5.9-5.7
							h0.1v-11.3H245.3z"/>
						<path class="st1" d="M236.7,377.8c-0.8,0-1.4,0.3-2,0.9c-0.5,0.5-0.8,1.2-0.8,2c0,0.7,0.2,1.4,0.8,2c0.5,0.6,1.2,0.9,2,0.9
							c0.9,0,1.6-0.2,2.1-0.8c0.5-0.6,0.8-1.3,0.8-2.1s-0.2-1.6-0.8-2.1C238.2,378.1,237.5,377.8,236.7,377.8z"/>
					</g>
					<g>
						<path class="st1" d="M279,377.8c-0.8,0-1.4,0.3-2,0.9c-0.5,0.5-0.8,1.2-0.8,2c0,0.7,0.2,1.4,0.8,2c0.5,0.6,1.2,0.9,2,0.9
							c0.9,0,1.6-0.2,2.1-0.8c0.5-0.6,0.8-1.3,0.8-2.1s-0.2-1.6-0.8-2.1C280.5,378.1,279.8,377.8,279,377.8z"/>
						<path class="st1" d="M276.1,357.9v8.7c0,1.3-0.4,2.1-1.1,2.4c-0.4,0.1-1.2,0.2-2.6,0.2H271h-1.5h-2v-11.3h-5.8v19.8
							c0,2.1-0.9,3.1-2.6,3.1h-5v6h8.1c1.6,0,2.9-0.5,3.9-1.6c0.9-1.1,1.4-2.4,1.4-4.1v-6.2h2h1.5h5c3.9,0,5.9-1.9,5.9-5.7v-11.3
							H276.1z"/>
					</g>
				</g>
				<path class="st1" d="M317.6,374.9c0,3.2-1.1,6-3.3,8.3c-2.2,2.4-4.9,3.6-8.1,3.6s-6-1.1-8.2-3.3c-2.3-2.2-3.4-4.9-3.4-8.1V358
					h5.8v17.2c0,1.6,0.6,3,1.7,4.1s2.5,1.7,4.1,1.7s3-0.6,4.1-1.7s1.7-2.5,1.7-4.1V358h5.8v16.9H317.6z M309.1,352.7
					c0,0.8-0.3,1.5-0.9,2c-0.6,0.6-1.3,0.9-2,0.9c-0.8,0-1.5-0.3-2-0.9c-0.6-0.6-0.9-1.3-0.9-2c0-0.8,0.3-1.5,0.9-2
					c0.6-0.6,1.2-0.8,2-0.8s1.5,0.3,2,0.8C308.8,351.3,309.1,351.9,309.1,352.7z"/>
				<g>
					<path class="st1" d="M344,355.7c0.9,0,1.5-0.2,2.1-0.8c0.5-0.6,0.8-1.3,0.8-2.1s-0.3-1.5-0.8-2.1c-0.6-0.5-1.3-0.8-2.1-0.8
						s-1.4,0.3-2,0.9c-0.5,0.5-0.8,1.3-0.8,2s0.2,1.4,0.8,2C342.5,355.4,343.2,355.7,344,355.7z"/>
					<path class="st1" d="M337.5,355.7c0.8,0,1.4-0.3,2-0.9c0.5-0.5,0.8-1.2,0.8-2s-0.3-1.4-0.8-2c-0.5-0.6-1.2-0.9-2-0.9
						s-1.4,0.3-2,0.9c-0.5,0.5-0.8,1.3-0.8,2s0.2,1.4,0.8,2C336,355.4,336.8,355.7,337.5,355.7z"/>
					<path class="st1" d="M391.2,355.6c0.7,0,1.4-0.3,2-0.9c0.6-0.5,0.9-1.2,0.9-2s-0.3-1.4-0.9-2c-0.5-0.5-1.3-0.8-2-0.8
						s-1.4,0.2-2,0.8c-0.6,0.5-0.9,1.2-0.9,2c0,0.7,0.3,1.4,0.9,2C389.8,355.3,390.5,355.6,391.2,355.6z"/>
					<path class="st1" d="M388.6,357.9v8.7c0,1.3-0.4,2.1-1.1,2.4c-0.4,0.1-1.2,0.2-2.6,0.2h-1.3H382h-2.1v-11.3h-5.8v11.3h-5.3
						v-11.3H363v11.3h-5.2v-11.3H352v11.3h-5h-1.7h-1.9V358h-5.8v11.2h-6.5v0.1h-0.2c-1.9,0-2.9-0.9-2.9-2.6V345h-5.8v24.3
						c0,3.7,1.9,5.6,5.8,5.6h3.1h1.4h12.8h1.6h0.1h35h1.6h4.9c3.9,0,5.9-1.9,5.9-5.7v-11.3H388.6z"/>
				</g>
				<g>
					<path class="st1" d="M420.5,355.7c0.7,0,1.4-0.3,2-0.9c0.6-0.5,0.9-1.2,0.9-2s-0.3-1.5-0.9-2c-0.5-0.5-1.3-0.8-2-0.8
						s-1.4,0.2-2,0.8c-0.6,0.5-0.9,1.2-0.9,2s0.3,1.4,0.9,2C419,355.4,419.8,355.7,420.5,355.7z"/>
					<path class="st1" d="M449.7,357.9h-8.5c-3.1,0-4.6,1.4-4.6,4.2v7h-6.5v0.1h-5.7l3.7-4.2c0.8-0.9,1.2-1.9,1.2-2.8
						c0-1.1-0.5-2.2-1.6-3c-1-0.8-2.1-1.2-3.3-1.2h-7.6c-1.2,0-2.3,0.4-3.3,1.2c-1.1,0.8-1.6,1.8-1.6,3c0,0.9,0.4,1.9,1.2,2.8
						l3.7,4.2h-9.4v0.1c-1.8-0.1-2.7-1-2.7-2.6V345h-5.8v24.3c0,3.7,1.9,5.6,5.8,5.6h2.7h1.8h22.4v-0.1h18.1c3.1,0,4.6-1.4,4.6-4.2
						v-8.5C454.3,359.3,452.8,357.9,449.7,357.9z M420.8,366.4l-2.1-3.2h4.4L420.8,366.4z M448.4,367.8c0,0.9-0.5,1.4-1.5,1.4h-3
						c-1,0-1.5-0.5-1.5-1.4V365c0-0.9,0.5-1.4,1.5-1.4h3c1,0,1.5,0.5,1.5,1.4V367.8z"/>
					<path class="st1" d="M445.3,355.6c0.8,0,1.4-0.3,2-0.9c0.6-0.5,0.9-1.2,0.9-2s-0.3-1.4-0.9-2c-0.5-0.5-1.2-0.8-2-0.8
						c-0.7,0-1.4,0.2-2,0.8c-0.6,0.5-0.9,1.2-0.9,2c0,0.7,0.3,1.4,0.9,2C443.8,355.3,444.5,355.6,445.3,355.6z"/>
				</g>
				<path class="st1" d="M464.7,374.9h-5.8V345h5.8V374.9z"/>
				<path class="st1" d="M494.1,374.9h-16.6v-5.7h10.7v-3.1c0-1.7-0.8-2.6-2.5-2.6h-8.1v-5.6h12c3.1,0,4.6,1.4,4.6,4.2v12.8H494.1z"
					/>
			</g>
		</g>
	</g>
</g>
</svg>
